<svg width="124" height="38" viewBox="0 0 124 38" fill="none" xmlns="http://www.w3.org/2000/svg">
<g>
<path d="M6.85819 7.86639H0.473038V30.6312H6.85819V7.86639Z" fill="#F45F31"/>
<path d="M30.3261 7.86639L23.3209 24.789L16.3648 7.86639H8.24515L17.268 27.4828C18.3533 29.7663 20.6634 31.223 23.1984 31.223H23.2459C25.7856 31.223 28.0972 29.7632 29.181 27.4752L38.1655 7.86639H30.3261Z" fill="#F45F31"/>
<path d="M50.3128 31.2246C47.4333 31.2246 44.912 30.7197 42.7519 29.7099C40.5919 28.7001 38.9126 27.2921 37.7124 25.4845C36.5122 23.677 35.9121 21.5918 35.9121 19.2259C35.9121 16.86 36.5122 14.7413 37.7124 12.949C38.9126 11.1551 40.5919 9.75481 42.7519 8.74348C44.912 7.73368 47.4317 7.22878 50.3128 7.22878C53.1938 7.22878 55.7136 7.73368 57.8736 8.74348C60.0336 9.75329 61.713 11.1551 62.9132 12.949C64.1133 14.7428 64.7134 16.8494 64.7134 19.2671C64.7134 21.6848 64.1133 23.7105 62.9132 25.5044C61.713 27.2982 60.0321 28.7001 57.8736 29.7099C55.7136 30.7197 53.1938 31.2246 50.3128 31.2246ZM50.3128 25.6844C51.7793 25.6844 53.0254 25.4251 54.0526 24.9064C55.0783 24.3878 55.8728 23.6449 56.4331 22.6748C56.9934 21.7062 57.2735 20.556 57.2735 19.2274C57.2735 17.8988 56.9934 16.7167 56.4331 15.7602C55.8728 14.8038 55.0783 14.0655 54.0526 13.5469C53.0254 13.0298 51.7793 12.7705 50.3128 12.7705C48.8462 12.7705 47.6323 13.0298 46.5928 13.5469C45.5534 14.0655 44.7527 14.8099 44.1925 15.7785C43.6322 16.7487 43.352 17.8973 43.352 19.2259C43.352 20.5545 43.6322 21.7382 44.1925 22.6946C44.7527 23.651 45.5518 24.3878 46.5928 24.9064C47.6323 25.4251 48.8738 25.6844 50.3128 25.6844Z" fill="#F45F31"/>
<path d="M80.3112 31.2246C77.4317 31.2246 74.9104 30.7197 72.7504 29.7099C70.5904 28.7001 68.911 27.2921 67.7108 25.4845C66.5106 23.677 65.9106 21.5918 65.9106 19.2259C65.9106 16.86 66.5106 14.7413 67.7108 12.949C68.911 11.1551 70.5904 9.75481 72.7504 8.74348C74.9104 7.73368 77.4302 7.22878 80.3112 7.22878C83.1923 7.22878 85.712 7.73368 87.8721 8.74348C90.0321 9.75329 91.7114 11.1551 92.9116 12.949C94.1118 14.7428 94.7119 16.8494 94.7119 19.2671C94.7119 21.6848 94.1118 23.7105 92.9116 25.5044C91.7114 27.2982 90.0306 28.7001 87.8721 29.7099C85.712 30.7197 83.1923 31.2246 80.3112 31.2246ZM80.3112 25.6844C81.7778 25.6844 83.0239 25.4251 84.0511 24.9064C85.0767 24.3878 85.8712 23.6449 86.4315 22.6748C86.9918 21.7062 87.272 20.556 87.272 19.2274C87.272 17.8988 86.9918 16.7167 86.4315 15.7602C85.8712 14.8038 85.0767 14.0655 84.0511 13.5469C83.0239 13.0298 81.7778 12.7705 80.3112 12.7705C78.8447 12.7705 77.6307 13.0298 76.5913 13.5469C75.5518 14.0655 74.7512 14.8099 74.1909 15.7785C73.6306 16.7487 73.3505 17.8973 73.3505 19.2259C73.3505 20.5545 73.6306 21.7382 74.1909 22.6946C74.7512 23.651 75.5503 24.3878 76.5913 24.9064C77.6307 25.4251 78.8722 25.6844 80.3112 25.6844Z" fill="#F45F31"/>
<path d="M6.87197 1.5025C6.5658 1.04641 6.13869 0.689472 5.58912 0.431683C5.03954 0.173893 4.39812 0.0457611 3.66484 0.0457611C2.93157 0.0457611 2.29014 0.173893 1.74057 0.431683C1.191 0.689472 0.763892 1.04489 0.457723 1.5025C0.151554 1.95859 0 2.49095 0 3.09958C0 3.7082 0.153085 4.23293 0.457723 4.69207C0.763892 5.15274 1.191 5.50968 1.74057 5.76747C2.29014 6.02373 2.93157 6.15339 3.66484 6.15339C4.39812 6.15339 5.03954 6.02526 5.58912 5.76747C6.13869 5.50968 6.5658 5.15426 6.87197 4.69665C7.1766 4.24056 7.32969 3.71125 7.32969 3.10873C7.32969 2.5062 7.1766 1.95706 6.87197 1.50097V1.5025Z" fill="#F45F31"/>
<path d="M101.077 18.0544C102.248 18.602 103.525 18.9986 104.909 19.2503C103.527 19.5005 102.248 19.8986 101.077 20.4462C98.9172 21.456 97.2378 22.8578 96.0376 24.6517C94.8818 26.3799 94.2833 28.3736 94.2419 30.6327H101.686C101.726 29.4292 102 28.3767 102.518 27.4813C103.078 26.5111 103.871 25.7667 104.898 25.2496C105.925 24.731 107.171 24.4717 108.638 24.4717C110.105 24.4717 111.319 24.731 112.358 25.2496C113.397 25.7683 114.198 26.505 114.758 27.4614C115.277 28.3477 115.551 29.4063 115.591 30.6342H123.034C122.985 28.3904 122.388 26.4028 121.238 24.6715C120.038 22.8639 118.359 21.456 116.199 20.4462C115.028 19.8986 113.751 19.502 112.367 19.2503C113.75 19.0001 115.028 18.602 116.199 18.0544C118.359 17.0446 120.038 15.6428 121.238 13.8489C122.394 12.1207 122.993 10.127 123.034 7.86791H115.59C115.55 9.07144 115.276 10.124 114.758 11.0194C114.198 11.9895 113.405 12.7339 112.378 13.251C111.351 13.7696 110.105 14.0289 108.638 14.0289C107.171 14.0289 105.958 13.7696 104.918 13.251C103.879 12.7324 103.078 11.9956 102.518 11.0392C101.999 10.1529 101.725 9.09432 101.685 7.86639H94.2419C94.2909 10.1102 94.888 12.0978 96.0376 13.8291C97.2378 15.6367 98.9172 17.0446 101.077 18.0544Z" fill="#F45F31"/>
</g>
</svg>
